<svg width="283" height="32" viewBox="0 0 283 32" fill="none" xmlns="http://www.w3.org/2000/svg">
<g clip-path="url(#clip0)">
<path d="M27.9349 0H9.06081C7.17295 0 5.3697 1.5272 5.04021 3.41951L0 32H3.41951C5.30736 32 7.11062 30.4728 7.4401 28.5805L9.05635 19.4173H24.5109C26.0916 19.4173 27.1512 20.704 26.8707 22.2891C26.5902 23.8698 25.0808 25.161 23.4958 25.161H14.0966C12.2087 25.161 10.4055 26.6882 10.076 28.5805L9.47489 32H22.298C27.6499 32 32.7747 27.6455 33.7187 22.2891C34.1417 19.8937 33.6563 17.6942 32.512 15.9978C34.2574 14.3058 35.5175 12.1063 35.936 9.71087C36.8755 4.35898 33.2868 0 27.9349 0ZM25.7175 12.5783H10.263L11.2737 6.83901H26.7283C28.3089 6.83901 29.3686 8.12578 29.0881 9.71087C28.8076 11.2959 27.2982 12.5783 25.7175 12.5783Z" fill="#444444"/>
<path d="M282.572 9.71087C283.516 4.35898 279.928 0 274.571 0H255.697C253.809 0 252.006 1.5272 251.677 3.41951L246.636 32H250.056C251.944 32 253.747 30.4728 254.077 28.5805L255.693 19.4173H271.147C272.728 19.4173 273.792 20.704 273.512 22.2891C273.231 23.8698 271.717 25.161 270.132 25.161H260.729C258.841 25.161 257.037 26.6882 256.708 28.5805L256.107 32H268.93C274.286 32 279.407 27.6455 280.351 22.2891C280.774 19.8937 280.284 17.6942 279.144 15.9978C280.885 14.3058 282.149 12.1063 282.572 9.71087ZM272.354 12.5783H256.899L257.91 6.83901H273.365C274.945 6.83901 276.009 8.12578 275.729 9.71087C275.453 11.2915 273.939 12.5783 272.354 12.5783Z" fill="#32EAB9"/>
<path d="M62.9759 0H44.1063C42.2184 0 40.4152 1.5272 40.0857 3.41951L35.041 32H38.4606C40.3484 32 42.1517 30.4728 42.4811 28.5805L44.0974 19.4173H59.552C61.1326 19.4173 62.1923 20.704 61.9118 22.2891L60.1976 32H63.6171C65.5049 32 67.3082 30.4728 67.6377 28.5805L68.7463 22.2891C69.1693 19.8937 68.684 17.6942 67.5397 15.9978C69.2851 14.3058 70.5452 12.1063 70.9637 9.71087C71.9165 4.35898 68.3323 0 62.9759 0ZM60.7586 12.5783H45.304L46.3147 6.83901H61.7693C63.3499 6.83901 64.4096 8.12578 64.1291 9.71087C63.8531 11.2915 62.3437 12.5783 60.7586 12.5783Z" fill="#444444"/>
<path d="M79.5926 0C77.7047 0 75.9015 1.5272 75.572 3.41951L71.1373 28.5805C70.8034 30.4683 72.0635 32 73.9558 32H99.1212C101.009 32 102.812 30.4728 103.142 28.5805L103.743 25.161H78.5774L79.5882 19.4173H98.2173C100.105 19.4173 101.904 17.8901 102.238 15.9978L102.839 12.5783H80.7903L81.801 6.83901H103.547C105.435 6.83901 107.238 5.31181 107.568 3.41951L108.178 0H79.5926Z" fill="#444444"/>
<path d="M133.062 0H120.48C115.128 0 110.003 4.35898 109.059 9.71087L105.128 32H108.547C110.435 32 112.238 30.4728 112.568 28.5805L113.886 21.0959H127.012C128.899 21.0959 130.703 19.5687 131.032 17.6764C131.032 17.6719 131.032 17.663 131.032 17.6585L131.633 14.2569H128.249C128.236 14.2569 128.227 14.2569 128.218 14.2569H115.097L115.898 9.71087C116.179 8.13023 117.693 6.83901 119.278 6.83901H131.86C133.441 6.83901 134.505 8.12578 134.225 9.71087L130.293 32H133.713C135.6 32 137.399 30.4683 137.729 28.5805L141.055 9.71087C142.003 4.35898 138.414 0 133.062 0Z" fill="#444444"/>
<path d="M245.817 0H242.398L238.466 22.2891C238.186 23.8698 236.672 25.161 235.087 25.161H222.504C220.923 25.161 219.859 23.8742 220.14 22.2891L223.466 3.41951C223.8 1.53165 222.54 0 220.647 0H217.228L213.296 22.2891C212.352 27.6455 215.937 32 221.293 32H233.876C239.232 32 244.352 27.6455 245.296 22.2891L248.622 3.41951C248.965 1.5272 247.709 0 245.817 0Z" fill="#32EAB9"/>
<path d="M178.104 3.41951C178.438 1.53165 177.178 0 175.285 0C173.398 0 171.594 1.5272 171.265 3.41951C170.374 8.47308 165.543 12.5783 160.485 12.5783H151.322L152.938 3.41951C153.272 1.53165 152.012 0 150.12 0C148.232 0 146.429 1.5272 146.099 3.41951L141.059 32H144.479C146.366 32 148.17 30.4728 148.499 28.5805L150.115 19.4173H159.279C164.332 19.4173 167.716 23.5269 166.826 28.5805L166.225 32H173.064L173.665 28.5805C174.564 23.4824 172.97 18.932 169.76 15.9978C174.003 13.068 177.204 8.5176 178.104 3.41951Z" fill="#444444"/>
<path d="M210.772 0C208.884 0 207.081 1.5272 206.751 3.41951L205.135 12.5783H186.817L188.434 3.41951C188.767 1.53165 187.507 0 185.615 0C183.727 0 181.924 1.5272 181.595 3.41951L176.554 32H179.974C181.862 32 183.665 30.4728 183.994 28.5805L185.611 19.4173H203.928L201.702 32H205.121H205.126C207.014 32 208.817 30.4728 209.146 28.5805L213.581 3.41951C213.92 1.5272 212.66 0 210.772 0Z" fill="#32EAB9"/>
</g>
<defs>
<clipPath id="clip0">
<rect width="282.719" height="32" fill="white"/>
</clipPath>
</defs>
</svg>
