<svg width="16" height="20" viewBox="0 0 16 20" fill="none" xmlns="http://www.w3.org/2000/svg">
<path fill-rule="evenodd" clip-rule="evenodd" d="M10.8993 3.14671C10.2395 3.94607 9.12295 4.54243 8.23477 4.54243C8.13326 4.54243 8.03176 4.52974 7.96832 4.51705C7.95563 4.4663 7.93025 4.31404 7.93025 4.16178C7.93025 3.14671 8.45047 2.13164 9.00876 1.49722C9.71931 0.659794 10.912 0.038065 11.9017 0C11.9271 0.114195 11.9398 0.253767 11.9398 0.393339C11.9398 1.40841 11.5084 2.41078 10.8993 3.14671ZM6.55838 19.3063C6.11273 19.4978 5.68977 19.6796 5.1134 19.6796C3.88263 19.6796 3.03251 18.5504 2.05551 17.18C0.913561 15.5559 0 13.0436 0 10.6582C0 6.83904 2.48692 4.8089 4.93577 4.8089C5.65546 4.8089 6.30845 5.07179 6.88819 5.30518C7.35099 5.4915 7.76711 5.65902 8.13323 5.65902C8.45776 5.65902 8.85814 5.50064 9.32314 5.31669C9.96713 5.06194 10.7351 4.75815 11.5971 4.75815C12.1554 4.75815 14.1729 4.8089 15.4925 6.71215C15.4846 6.71828 15.4677 6.72935 15.4432 6.74548C15.1114 6.96331 13.3735 8.10431 13.3735 10.4552C13.3735 13.3735 15.9239 14.414 16 14.4394C15.9873 14.5028 15.594 15.8478 14.655 17.2308C13.8176 18.4362 12.9294 19.6543 11.5971 19.6543C10.9469 19.6543 10.531 19.4704 10.1013 19.2804C9.64215 19.0775 9.16734 18.8676 8.37431 18.8676C7.57885 18.8676 7.05456 19.093 6.55838 19.3063Z" fill="#151616"/>
</svg>
