<svg width="9" height="16" viewBox="0 0 9 16" fill="none" xmlns="http://www.w3.org/2000/svg">
<path d="M7.95103 16C8.54163 16 9 15.531 9 14.9357C9 14.6381 8.88541 14.3675 8.68266 14.1601L2.51224 7.99098L8.68266 1.83991C8.88541 1.63247 9 1.35287 9 1.06426C9 0.468997 8.54163 0 7.95103 0C7.66895 0 7.42213 0.10823 7.22821 0.306652L0.370225 7.16122C0.123408 7.39572 0 7.68433 0 8C0 8.31567 0.123408 8.58625 0.36141 8.82976L7.21939 15.6933C7.42213 15.8918 7.66895 16 7.95103 16Z" fill="#333333"/>
</svg>
